<svg width="41" height="41" viewBox="0 0 41 41" fill="none" xmlns="http://www.w3.org/2000/svg">
<path d="M12.9261 19.0491C12.7402 19.2433 12.5945 19.4722 12.4973 19.7229C12.2931 20.2199 12.2931 20.7775 12.4973 21.2745C12.5945 21.5251 12.7402 21.7541 12.9261 21.9483L19.0511 28.0733C19.4355 28.4577 19.957 28.6737 20.5006 28.6737C21.0443 28.6737 21.5658 28.4577 21.9502 28.0733C22.3347 27.6888 22.5507 27.1674 22.5507 26.6237C22.5507 26.08 22.3347 25.5586 21.9502 25.1741L19.2961 22.5404H26.6256C27.1671 22.5404 27.6864 22.3253 28.0693 21.9424C28.4522 21.5595 28.6673 21.0402 28.6673 20.4987C28.6673 19.9572 28.4522 19.4379 28.0693 19.055C27.6864 18.6721 27.1671 18.457 26.6256 18.457H19.2961L21.9502 15.8233C22.1416 15.6335 22.2935 15.4077 22.3971 15.1589C22.5008 14.9101 22.5542 14.6432 22.5542 14.3737C22.5542 14.1042 22.5008 13.8373 22.3971 13.5885C22.2935 13.3397 22.1416 13.1139 21.9502 12.9241C21.7604 12.7328 21.5346 12.5809 21.2858 12.4772C21.037 12.3736 20.7702 12.3202 20.5006 12.3202C20.2311 12.3202 19.9643 12.3736 19.7155 12.4772C19.4667 12.5809 19.2409 12.7328 19.0511 12.9241L12.9261 19.0491ZM0.0839844 20.4987C0.0839844 24.5367 1.2814 28.4841 3.52481 31.8416C5.76822 35.1991 8.95687 37.8159 12.6875 39.3612C16.4182 40.9065 20.5233 41.3108 24.4837 40.5231C28.4442 39.7353 32.0821 37.7908 34.9374 34.9355C37.7927 32.0801 39.7372 28.4422 40.525 24.4818C41.3128 20.5213 40.9085 16.4162 39.3632 12.6856C37.8179 8.95492 35.201 5.76627 31.8435 3.52286C28.486 1.27945 24.5387 0.0820312 20.5006 0.0820312C17.8195 0.0820312 15.1646 0.610124 12.6875 1.63616C10.2105 2.66219 7.95975 4.16607 6.06389 6.06193C2.23502 9.8908 0.0839844 15.0839 0.0839844 20.4987ZM36.834 20.4987C36.834 23.7291 35.876 26.887 34.0813 29.573C32.2866 32.259 29.7357 34.3525 26.7511 35.5887C23.7666 36.825 20.4825 37.1484 17.3142 36.5182C14.1458 35.888 11.2355 34.3324 8.95124 32.0481C6.66698 29.7638 5.11138 26.8535 4.48116 23.6852C3.85093 20.5168 4.17439 17.2327 5.41062 14.2482C6.64685 11.2637 8.74033 8.71276 11.4263 6.91803C14.1123 5.1233 17.2702 4.16536 20.5006 4.16536C24.8325 4.16536 28.987 5.88619 32.0501 8.94929C35.1132 12.0124 36.834 16.1668 36.834 20.4987Z" fill="#6563FF"/>
</svg>
