<svg width="48" height="45" viewBox="0 0 48 45" fill="none" xmlns="http://www.w3.org/2000/svg">
<path d="M24 11.25L26.868 16.4573L33 17.2927L28.5 21.0938L30 26.7188L24 23.5547L18 26.7188L19.5 21.0938L15 17.2927L21.3 16.4573L24 11.25Z" fill="#F76C6C"/>
<path d="M26.604 42.1875L24 40.7812L30 30.9375H39C39.3941 30.9381 39.7845 30.8657 40.1488 30.7245C40.513 30.5834 40.8439 30.3763 41.1226 30.115C41.4013 29.8537 41.6223 29.5434 41.7728 29.202C41.9234 28.8605 42.0006 28.4945 42 28.125V11.25C42.0006 10.8805 41.9234 10.5145 41.7728 10.173C41.6223 9.83157 41.4013 9.5213 41.1226 9.26002C40.8439 8.99875 40.513 8.7916 40.1488 8.65046C39.7845 8.50931 39.3941 8.43694 39 8.4375H9C8.60587 8.43694 8.21549 8.50931 7.85125 8.65046C7.48701 8.7916 7.15605 8.99875 6.87736 9.26002C6.59867 9.5213 6.37771 9.83157 6.22715 10.173C6.0766 10.5145 5.99941 10.8805 6 11.25V28.125C5.99941 28.4945 6.0766 28.8605 6.22715 29.202C6.37771 29.5434 6.59867 29.8537 6.87736 30.115C7.15605 30.3763 7.48701 30.5834 7.85125 30.7245C8.21549 30.8657 8.60587 30.9381 9 30.9375H22.5V33.75H9C7.4087 33.75 5.88258 33.1574 4.75736 32.1025C3.63214 31.0476 3 29.6168 3 28.125V11.25C2.9998 10.5113 3.15486 9.77973 3.45632 9.09719C3.75778 8.41465 4.19973 7.79448 4.75692 7.27211C5.31411 6.74975 5.97562 6.33542 6.70367 6.0528C7.43171 5.77018 8.21201 5.62482 9 5.625H39C39.788 5.62482 40.5683 5.77018 41.2963 6.0528C42.0244 6.33542 42.6859 6.74975 43.2431 7.27211C43.8003 7.79448 44.2422 8.41465 44.5437 9.09719C44.8451 9.77973 45.0002 10.5113 45 11.25V28.125C45 29.6168 44.3679 31.0476 43.2426 32.1025C42.1174 33.1574 40.5913 33.75 39 33.75H31.7475L26.604 42.1875Z" fill="#F76C6C"/>
</svg>
