<svg width="115" height="115" viewBox="0 0 115 115" fill="none" xmlns="http://www.w3.org/2000/svg">
<path d="M57.4997 64.207L71.3955 78.1029C72.274 78.9813 73.392 79.4206 74.7497 79.4206C76.1073 79.4206 77.2254 78.9813 78.1038 78.1029C78.9823 77.2244 79.4216 76.1063 79.4216 74.7487C79.4216 73.3911 78.9823 72.273 78.1038 71.3945L64.208 57.4987L78.1038 43.6029C78.9823 42.7244 79.4216 41.6063 79.4216 40.2487C79.4216 38.8911 78.9823 37.773 78.1038 36.8945C77.2254 36.0161 76.1073 35.5768 74.7497 35.5768C73.392 35.5768 72.274 36.0161 71.3955 36.8945L57.4997 50.7904L43.6038 36.8945C42.7254 36.0161 41.6073 35.5768 40.2497 35.5768C38.892 35.5768 37.774 36.0161 36.8955 36.8945C36.017 37.773 35.5778 38.8911 35.5778 40.2487C35.5778 41.6063 36.017 42.7244 36.8955 43.6029L50.7913 57.4987L36.8955 71.3945C36.017 72.273 35.5778 73.3911 35.5778 74.7487C35.5778 76.1063 36.017 77.2244 36.8955 78.1029C37.774 78.9813 38.892 79.4206 40.2497 79.4206C41.6073 79.4206 42.7254 78.9813 43.6038 78.1029L57.4997 64.207ZM57.4997 105.415C50.8712 105.415 44.642 104.157 38.8122 101.64C32.9823 99.1223 27.9111 95.7091 23.5986 91.3997C19.2861 87.0872 15.8729 82.0161 13.3588 76.1862C10.8448 70.3563 9.5862 64.1272 9.58301 57.4987C9.58301 50.8702 10.8416 44.6411 13.3588 38.8112C15.8761 32.9813 19.2893 27.9102 23.5986 23.5977C27.9111 19.2852 32.9823 15.8719 38.8122 13.3579C44.642 10.8438 50.8712 9.58523 57.4997 9.58203C64.1282 9.58203 70.3573 10.8406 76.1872 13.3579C82.017 15.8751 87.0882 19.2884 91.4007 23.5977C95.7132 27.9102 99.1281 32.9813 101.645 38.8112C104.163 44.6411 105.42 50.8702 105.416 57.4987C105.416 64.1272 104.158 70.3563 101.641 76.1862C99.1233 82.0161 95.71 87.0872 91.4007 91.3997C87.0882 95.7122 82.017 99.1271 76.1872 101.644C70.3573 104.162 64.1282 105.419 57.4997 105.415ZM57.4997 95.832C68.2011 95.832 77.2653 92.1185 84.6924 84.6914C92.1195 77.2643 95.833 68.2001 95.833 57.4987C95.833 46.7973 92.1195 37.7331 84.6924 30.306C77.2653 22.8789 68.2011 19.1654 57.4997 19.1654C46.7983 19.1654 37.7341 22.8789 30.307 30.306C22.8799 37.7331 19.1663 46.7973 19.1663 57.4987C19.1663 68.2001 22.8799 77.2643 30.307 84.6914C37.7341 92.1185 46.7983 95.832 57.4997 95.832Z" fill="#F76C6C"/>
</svg>
