<svg width="56" height="56" viewBox="0 0 56 56" fill="none" xmlns="http://www.w3.org/2000/svg">
<g clip-path="url(#clip0_141_2458)">
<path d="M55.4805 4.51537C55.4848 3.51097 55.097 2.56781 54.3891 1.8599C53.6812 1.15199 52.7369 0.76527 51.7347 0.769567C50.7324 0.773864 49.7903 1.16703 49.0792 1.87709C48.7784 2.17787 48.2317 2.82777 47.933 3.18763C47.853 3.27693 47.7919 3.38144 47.7532 3.49492C47.7145 3.60839 47.6991 3.7285 47.708 3.84806C47.7168 3.96761 47.7496 4.08417 47.8045 4.19075C47.8594 4.29733 47.9352 4.39174 48.0274 4.46835C48.1196 4.54495 48.2263 4.60217 48.3412 4.63659C48.456 4.671 48.5766 4.68191 48.6958 4.66865C48.8149 4.65539 48.9302 4.61824 49.0346 4.55942C49.1391 4.50059 49.2306 4.42131 49.3037 4.3263C49.7721 3.76234 50.1599 3.31654 50.3403 3.13714C50.7163 2.76117 51.2137 2.55384 51.7422 2.5517H51.7497C52.2729 2.5517 52.7616 2.75365 53.129 3.12103C53.3114 3.30273 53.4556 3.51896 53.5534 3.75709C53.6511 3.99521 53.7004 4.25045 53.6983 4.50785C53.6975 4.76859 53.6453 5.02661 53.5446 5.26715C53.444 5.50769 53.2969 5.72604 53.1118 5.9097C52.7756 6.24593 51.6197 7.16332 49.9644 8.32025C49.4677 7.46764 48.7563 6.7601 47.9009 6.26816C47.0456 5.77622 46.0763 5.51707 45.0896 5.51654H32.0421C31.1759 5.51431 30.3179 5.68386 29.5176 6.01539C28.7174 6.34692 27.9908 6.83384 27.38 7.44798L1.29688 33.53C1.03729 33.7885 0.831481 34.096 0.691354 34.4345C0.551227 34.773 0.479555 35.1359 0.480478 35.5023C0.480478 36.2478 0.770517 36.9493 1.29796 37.4767L18.7723 54.9499C19.0314 55.2094 19.3392 55.415 19.678 55.5551C20.0169 55.6952 20.38 55.767 20.7467 55.7663C21.461 55.7663 22.1765 55.4946 22.7211 54.9499L48.8021 28.8701C49.4163 28.2593 49.9032 27.5327 50.2347 26.7325C50.5663 25.9322 50.7358 25.0741 50.7335 24.2079V11.1605C50.7335 10.7748 50.6938 10.3989 50.6196 10.0358C52.506 8.73812 53.8896 7.65316 54.3719 7.16976C54.7221 6.82195 55.0003 6.40846 55.1906 5.95298C55.3808 5.4975 55.4793 5.00897 55.4805 4.51537ZM48.9514 24.2079C48.953 24.84 48.8293 25.4662 48.5874 26.0501C48.3455 26.6341 47.9902 27.1643 47.542 27.61L21.46 53.692C21.2705 53.881 21.0138 53.9871 20.7462 53.9871C20.4785 53.9871 20.2218 53.881 20.0323 53.692L2.55802 36.2177C2.36788 36.0265 2.26261 35.773 2.26261 35.5034C2.26261 35.2337 2.36788 34.9802 2.55802 34.789L28.6401 8.70804C29.0857 8.26019 29.6158 7.90513 30.1995 7.66341C30.7833 7.42168 31.4092 7.29807 32.041 7.29974H45.0885C45.7846 7.30024 46.4677 7.48876 47.0656 7.84536C47.6635 8.20197 48.1539 8.71343 48.4852 9.32572C47.3457 10.0807 46.1851 10.8033 45.0047 11.4924C44.6636 11.1188 44.2503 10.8181 43.7898 10.6085C43.3293 10.3989 42.8311 10.2847 42.3253 10.2728C41.8195 10.261 41.3165 10.3517 40.8467 10.5395C40.3769 10.7274 39.95 11.0084 39.5917 11.3657C38.8909 12.0681 38.4974 13.0198 38.4974 14.012C38.4974 15.0042 38.8909 15.9559 39.5917 16.6583C39.9388 17.0062 40.3512 17.2821 40.8053 17.4702C41.2593 17.6582 41.7461 17.7547 42.2375 17.754C43.1957 17.754 44.1539 17.3888 44.8833 16.6583C45.3456 16.1955 45.6785 15.6196 45.8489 14.988C46.0192 14.3564 46.0212 13.6912 45.8544 13.0586C46.9013 12.4482 47.9332 11.8124 48.9492 11.1519V24.2079H48.9514ZM41.4426 14.4111C41.5488 14.6223 41.7345 14.7827 41.9589 14.857C42.1833 14.9314 42.428 14.9135 42.6393 14.8075C43.1613 14.5443 43.6813 14.2703 44.1969 13.9911C44.2002 14.252 44.1513 14.5109 44.053 14.7526C43.9546 14.9943 43.8089 15.2138 43.6243 15.3983C43.2564 15.7651 42.7581 15.9711 42.2386 15.9711C41.7191 15.9711 41.2207 15.7651 40.8528 15.3983C40.4857 15.0303 40.2795 14.5318 40.2795 14.012C40.2795 13.4922 40.4857 12.9937 40.8528 12.6257C41.1795 12.298 41.6118 12.0969 42.0728 12.0579C42.5339 12.019 42.9938 12.1448 43.3708 12.413C42.8659 12.688 42.3546 12.9555 41.8379 13.2155C41.7333 13.268 41.6401 13.3407 41.5636 13.4293C41.4871 13.5179 41.4289 13.6207 41.3922 13.7319C41.3554 13.843 41.341 13.9603 41.3497 14.077C41.3583 14.1938 41.3899 14.3076 41.4426 14.4121V14.4111Z" fill="black"/>
<path d="M27.0318 18.918C26.7954 18.918 26.5686 19.0119 26.4014 19.1791C26.2342 19.3463 26.1402 19.5731 26.1402 19.8096V38.6277C26.1402 38.8642 26.2342 39.091 26.4014 39.2582C26.5686 39.4254 26.7954 39.5193 27.0318 39.5193C27.2683 39.5193 27.4951 39.4254 27.6623 39.2582C27.8295 39.091 27.9234 38.8642 27.9234 38.6277V19.8096C27.9234 19.5731 27.8295 19.3463 27.6623 19.1791C27.4951 19.0119 27.2683 18.918 27.0318 18.918ZM22.9573 26.5718C22.255 25.8707 21.3033 25.477 20.311 25.477C19.3187 25.477 18.3669 25.8707 17.6646 26.5718C16.9639 27.2742 16.5703 28.2259 16.5703 29.2181C16.5703 30.2103 16.9639 31.162 17.6646 31.8645C18.0119 32.2123 18.4246 32.4881 18.8788 32.676C19.3331 32.8638 19.82 32.9601 20.3115 32.9591C21.2697 32.9591 22.2279 32.5938 22.9573 31.8645C23.6642 31.1576 24.053 30.2177 24.053 29.2187C24.053 28.2196 23.6642 27.2786 22.9573 26.5718ZM21.6973 30.6044C21.3294 30.9712 20.831 31.1772 20.3115 31.1772C19.792 31.1772 19.2937 30.9712 18.9258 30.6044C18.559 30.2365 18.353 29.7382 18.353 29.2187C18.353 28.6991 18.559 28.2008 18.9258 27.8329C19.3071 27.4494 19.8099 27.2593 20.3115 27.2593C20.5691 27.2586 20.8242 27.3088 21.0623 27.407C21.3004 27.5052 21.5168 27.6494 21.699 27.8315C21.8811 28.0136 22.0255 28.2299 22.1239 28.4679C22.2222 28.706 22.2725 28.9611 22.272 29.2187C22.272 29.7418 22.0679 30.2338 21.6973 30.6044ZM36.399 26.5718C35.6967 25.8707 34.745 25.477 33.7527 25.477C32.7604 25.477 31.8086 25.8707 31.1063 26.5718C30.4056 27.2742 30.012 28.2259 30.012 29.2181C30.012 30.2103 30.4056 31.162 31.1063 31.8645C31.4537 32.2123 31.8663 32.4881 32.3205 32.6759C32.7748 32.8638 33.2617 32.96 33.7532 32.9591C34.7114 32.9591 35.6696 32.5938 36.399 31.8645C37.0998 31.162 37.4934 30.2103 37.4934 29.2181C37.4934 28.2259 37.0998 27.2742 36.399 26.5718ZM35.139 30.6044C34.7711 30.9712 34.2727 31.1772 33.7532 31.1772C33.2337 31.1772 32.7354 30.9712 32.3675 30.6044C32.0007 30.2365 31.7947 29.7382 31.7947 29.2187C31.7947 28.6991 32.0007 28.2008 32.3675 27.8329C32.7488 27.4494 33.2505 27.2593 33.7532 27.2593C34.256 27.2593 34.7565 27.4494 35.139 27.8318C35.5061 28.1998 35.7123 28.6983 35.7123 29.2181C35.7123 29.7379 35.5061 30.2365 35.139 30.6044Z" fill="black"/>
</g>
<defs>
<clipPath id="clip0_141_2458">
<rect width="55" height="55" fill="white" transform="translate(0.480469 0.769531)"/>
</clipPath>
</defs>
</svg>
