<svg width="56" height="56" viewBox="0 0 56 56" fill="none" xmlns="http://www.w3.org/2000/svg">
<g clip-path="url(#clip0_141_2452)">
<path d="M42.1729 20.0937L39.5754 17.4952C39.4106 17.3295 39.2145 17.1982 38.9986 17.1087C38.7827 17.0193 38.5512 16.9736 38.3175 16.9742C37.8416 16.9742 37.3947 17.1589 37.0585 17.4952L37.0177 17.536L29.1426 9.65982L29.1834 9.619C29.5196 9.28384 29.7044 8.83589 29.7044 8.36109C29.7044 7.88628 29.5196 7.43833 29.1834 7.1021L26.5849 4.50464C26.2508 4.17147 25.7982 3.98437 25.3264 3.98438C24.8546 3.98438 24.4021 4.17147 24.068 4.50464L17.5733 10.9994C17.2401 11.3334 17.053 11.786 17.053 12.2578C17.053 12.7296 17.2401 13.1822 17.5733 13.5163L20.1707 16.1148C20.5048 16.448 20.9573 16.6351 21.4292 16.6351C21.901 16.6351 22.3535 16.448 22.6876 16.1148L22.7284 16.074L24.1088 17.4543L22.7692 18.7939C22.5434 19.0181 22.3823 19.2992 22.3029 19.6074C22.2235 19.9155 22.2287 20.2394 22.3181 20.5449L0.949719 41.9111C0.698511 42.1611 0.499382 42.4584 0.363855 42.7859C0.228329 43.1134 0.159098 43.4645 0.160168 43.8189C0.160168 44.5397 0.44054 45.2175 0.950794 45.7278C1.20121 45.9784 1.49865 46.177 1.82605 46.3123C2.15345 46.4476 2.50435 46.5169 2.85861 46.5163C3.54933 46.5163 4.24005 46.2531 4.76642 45.7278L26.1326 24.3616C26.2916 24.4056 26.456 24.4303 26.6257 24.4303C27.1005 24.4303 27.5474 24.2456 27.8836 23.9093L29.2232 22.5698L30.6035 23.9502L30.5638 23.9899C30.3978 24.1548 30.2662 24.351 30.1766 24.5671C30.087 24.7832 30.0411 25.0149 30.0417 25.2489C30.0417 25.7237 30.2265 26.1706 30.5627 26.5068L33.1612 29.1053C33.4975 29.4416 33.9443 29.6263 34.4202 29.6263C34.8961 29.6263 35.3419 29.4416 35.6781 29.1053L42.1739 22.6095C42.5102 22.2744 42.6949 21.8275 42.6949 21.3516C42.6949 20.8757 42.5102 20.4289 42.1739 20.0937H42.1729ZM3.54933 44.5096C3.41246 44.645 3.23865 44.737 3.0497 44.774C2.86076 44.811 2.66509 44.7914 2.48725 44.7176C2.30941 44.6439 2.15732 44.5192 2.05005 44.3593C1.94278 44.1994 1.88512 44.0114 1.88429 43.8189C1.88429 43.5589 1.98527 43.314 2.16896 43.1293L23.3773 21.9199L24.7576 23.3002L3.54825 44.5096H3.54933ZM26.6665 22.6922C26.6633 22.6955 26.6504 22.7084 26.6268 22.7084C26.6031 22.7084 26.5902 22.6955 26.5859 22.6912L23.9863 20.0937C23.982 20.0905 23.9702 20.0776 23.9702 20.054C23.9702 20.0303 23.982 20.0174 23.9863 20.0131L25.3259 18.6736L28.0061 21.3527L26.6654 22.6922H26.6665ZM40.9568 21.3924L34.461 27.8872C34.4568 27.8915 34.4449 27.9044 34.4213 27.9044C34.3977 27.9044 34.3848 27.8915 34.3805 27.8872L31.7819 25.2897C31.7776 25.2854 31.7658 25.2725 31.7658 25.2489C31.7658 25.2252 31.7776 25.2124 31.7819 25.2081L32.4319 24.5582C32.593 24.3966 32.6835 24.1778 32.6835 23.9496C32.6835 23.7214 32.593 23.5026 32.4319 23.3411L23.9477 14.8558L25.936 12.8674C26.0207 12.7886 26.0886 12.6935 26.1357 12.5879C26.1828 12.4822 26.2082 12.3681 26.2103 12.2525C26.2124 12.1368 26.1911 12.0219 26.1478 11.9146C26.1046 11.8074 26.0401 11.7099 25.9584 11.6281C25.8766 11.5462 25.7792 11.4817 25.6719 11.4383C25.5647 11.3949 25.4498 11.3736 25.3342 11.3756C25.2185 11.3776 25.1044 11.4028 24.9987 11.4498C24.893 11.4969 24.7979 11.5647 24.719 11.6493L21.4705 14.8966C21.449 14.9192 21.4125 14.9192 21.39 14.8966L18.7914 12.2992C18.7807 12.2883 18.7746 12.2736 18.7746 12.2584C18.7746 12.2431 18.7807 12.2284 18.7914 12.2175L25.2872 5.72281C25.3087 5.70025 25.3452 5.70025 25.3678 5.72281L27.9663 8.32027C27.9878 8.34175 27.9878 8.37935 27.9663 8.40191L27.3196 9.04751L27.3057 9.06255C27.1492 9.22501 27.0626 9.44236 27.0647 9.66792C27.0667 9.89348 27.1571 10.1093 27.3164 10.2689L35.8017 18.7542L33.8122 20.7425C33.732 20.8224 33.6683 20.9173 33.6249 21.0218C33.5815 21.1263 33.5591 21.2384 33.5591 21.3516C33.5591 21.4648 33.5815 21.5769 33.6249 21.6814C33.6683 21.7859 33.732 21.8808 33.8122 21.9607C33.9737 22.1219 34.1926 22.2124 34.4208 22.2124C34.6489 22.2124 34.8678 22.1219 35.0293 21.9607L38.2777 18.7133C38.282 18.709 38.2939 18.6961 38.3186 18.6961C38.3433 18.6961 38.3551 18.709 38.3583 18.7133L40.9568 21.3108C40.9611 21.3151 40.974 21.328 40.974 21.3516C40.974 21.3752 40.9611 21.3881 40.9568 21.3924ZM55.1344 51.4824L54.564 49.2007C54.4188 48.6165 54.082 48.0977 53.6075 47.7272C53.133 47.3567 52.5481 47.1558 51.9461 47.1565H51.4863V45.2616C51.4863 44.2808 50.6871 43.4816 49.7064 43.4816H36.8447C36.3728 43.4822 35.9204 43.6699 35.5867 44.0036C35.253 44.3373 35.0653 44.7897 35.0648 45.2616V47.1565H34.605C34.003 47.1558 33.4181 47.3567 32.9436 47.7272C32.4691 48.0977 32.1323 48.6165 31.9871 49.2007L31.4167 51.4835C31.3848 51.6104 31.3824 51.743 31.4095 51.8711C31.4366 51.9992 31.4926 52.1194 31.5732 52.2226C31.6538 52.3258 31.7569 52.4092 31.8746 52.4665C31.9923 52.5239 32.1215 52.5536 32.2525 52.5534H54.2976C54.4284 52.5533 54.5576 52.5235 54.6752 52.4661C54.7928 52.4087 54.8958 52.3253 54.9763 52.2222C55.0569 52.1191 55.1129 51.9989 55.1401 51.8709C55.1673 51.7429 55.165 51.6104 55.1333 51.4835L55.1344 51.4824ZM33.3557 50.8303L33.6597 49.6175C33.7122 49.4065 33.8338 49.2191 34.0051 49.0852C34.1764 48.9513 34.3876 48.8785 34.605 48.8785H37.7643C37.9874 48.8706 38.1987 48.7764 38.3537 48.6158C38.5087 48.4552 38.5954 48.2407 38.5954 48.0175C38.5954 47.7943 38.5087 47.5798 38.3537 47.4191C38.1987 47.2585 37.9874 47.1644 37.7643 47.1565H36.7889V45.2616C36.7889 45.2294 36.8147 45.2046 36.8458 45.2046H49.7064C49.7386 45.2046 49.7633 45.2294 49.7633 45.2616V47.1565H41.4381C41.215 47.1644 41.0037 47.2585 40.8487 47.4191C40.6936 47.5798 40.607 47.7943 40.607 48.0175C40.607 48.2407 40.6936 48.4552 40.8487 48.6158C41.0037 48.7764 41.215 48.8706 41.4381 48.8785H51.9461C52.3941 48.8785 52.784 49.1825 52.8925 49.6175L53.1954 50.8314H33.3557V50.8303ZM43.2761 35.2144C43.0476 35.2144 42.8285 35.3052 42.6669 35.4667C42.5053 35.6283 42.4146 35.8474 42.4146 36.0759V40.6693C42.4146 40.8978 42.5053 41.1169 42.6669 41.2785C42.8285 41.44 43.0476 41.5308 43.2761 41.5308C43.5046 41.5308 43.7237 41.44 43.8853 41.2785C44.0468 41.1169 44.1376 40.8978 44.1376 40.6693V36.0759C44.1376 35.8474 44.0468 35.6283 43.8853 35.4667C43.7237 35.3052 43.5046 35.2144 43.2761 35.2144ZM48.254 38.0611C48.1528 38.0105 48.0426 37.9804 47.9297 37.9724C47.8169 37.9644 47.7035 37.9787 47.5962 38.0145C47.4889 38.0503 47.3896 38.1069 47.3042 38.1811C47.2187 38.2552 47.1487 38.3455 47.0982 38.4467L46.1797 40.2836C46.1291 40.3849 46.099 40.4951 46.091 40.6079C46.083 40.7208 46.0973 40.8341 46.1331 40.9414C46.1689 41.0488 46.2255 41.148 46.2997 41.2335C46.3739 41.3189 46.4641 41.3889 46.5653 41.4395C46.6666 41.4901 46.7767 41.5202 46.8896 41.5282C47.0025 41.5362 47.1158 41.5219 47.2231 41.4861C47.3305 41.4503 47.4297 41.3937 47.5152 41.3195C47.6006 41.2453 47.6706 41.1551 47.7212 41.0539L48.6397 39.2169C48.6902 39.1157 48.7204 39.0055 48.7284 38.8927C48.7364 38.7798 48.7221 38.6665 48.6863 38.5591C48.6504 38.4518 48.5938 38.3526 48.5197 38.2671C48.4455 38.1817 48.3552 38.1117 48.254 38.0611ZM40.3714 40.2836L39.4529 38.4467C39.4024 38.3456 39.3324 38.2554 39.2469 38.1813C39.1615 38.1072 39.0623 38.0507 38.955 38.0149C38.8478 37.9791 38.7345 37.9649 38.6217 37.9729C38.5089 37.9809 38.3988 38.0111 38.2976 38.0616C38.1965 38.1122 38.1063 38.1822 38.0322 38.2676C37.9581 38.3531 37.9016 38.4522 37.8658 38.5595C37.83 38.6668 37.8158 38.7801 37.8238 38.8929C37.8318 39.0057 37.8619 39.1158 37.9125 39.2169L38.832 41.0539C38.8794 41.1602 38.9478 41.2559 39.0331 41.335C39.1185 41.4142 39.2189 41.4753 39.3285 41.5146C39.4381 41.5538 39.5545 41.5705 39.6707 41.5635C39.7869 41.5565 39.9005 41.5261 40.0046 41.474C40.1087 41.4219 40.2012 41.3492 40.2764 41.2604C40.3517 41.1716 40.4082 41.0685 40.4424 40.9572C40.4767 40.846 40.4881 40.7289 40.4759 40.6132C40.4637 40.4974 40.4281 40.3853 40.3714 40.2836Z" fill="black"/>
</g>
<defs>
<clipPath id="clip0_141_2452">
<rect width="55" height="55" fill="white" transform="translate(0.160156 0.769531)"/>
</clipPath>
</defs>
</svg>
