<svg width="56" height="56" viewBox="0 0 56 56" fill="none" xmlns="http://www.w3.org/2000/svg">
<g clip-path="url(#clip0_141_2465)">
<path d="M39.3321 8.11719H36.5821C35.2822 8.11719 34.1973 9.04102 33.9395 10.2656C25.6762 14.2059 16.8464 16.8266 7.77151 18.0322C6.99807 18.1396 6.34279 18.5479 5.91311 19.1387H3.50686C2.79176 19.1387 2.10595 19.4227 1.60029 19.9284C1.09464 20.434 0.810568 21.1199 0.810568 21.835V27.3457C0.809154 27.7007 0.877852 28.0525 1.01272 28.3808C1.14759 28.7092 1.34597 29.0077 1.59649 29.2592C1.847 29.5107 2.14471 29.7103 2.47255 29.8465C2.80038 29.9826 3.15187 30.0527 3.50686 30.0527H5.91311C6.34279 30.6328 6.99807 31.0518 7.77151 31.1592L8.17971 31.2129L12.4121 46.4453C12.7344 47.6055 13.8086 48.4219 15.0117 48.4219H20.9629C21.1908 48.4219 21.4094 48.3313 21.5706 48.1702C21.7317 48.009 21.8223 47.7904 21.8223 47.5625C21.8223 47.3346 21.7317 47.116 21.5706 46.9548C21.4094 46.7937 21.1908 46.7031 20.9629 46.7031H20.6836L16.8487 32.8672C25.8721 35.0693 32.3174 38.1309 33.9287 38.9258C34.0566 39.5323 34.3889 40.0766 34.8698 40.4676C35.3508 40.8587 35.9514 41.0728 36.5713 41.0742H39.3213C39.6754 41.0742 40.026 41.0045 40.3531 40.869C40.6803 40.7335 40.9775 40.5349 41.2279 40.2845C41.4782 40.0341 41.6769 39.7369 41.8124 39.4098C41.9479 39.0826 42.0176 38.732 42.0176 38.3779V10.8135C42.0148 10.1021 41.7309 9.42066 41.2279 8.91763C40.7249 8.41461 40.0434 8.13076 39.3321 8.12793V8.11719ZM5.40822 28.3232H3.49611C2.95901 28.3232 2.52932 27.8936 2.52932 27.3564V21.8242C2.52932 21.2871 2.95901 20.8574 3.49611 20.8574H5.39748V28.3125L5.40822 28.3232ZM18.9112 46.6924H15.0117C14.5821 46.6924 14.1846 46.4023 14.0664 45.9834L10.0488 31.4814C11.6941 31.7488 13.3312 32.0641 14.958 32.4268L18.9219 46.7031L18.9112 46.6924ZM40.3096 38.3779C40.3096 38.915 39.8799 39.3447 39.3428 39.3447H36.5821C36.0449 39.3447 35.6045 38.915 35.6045 38.3779V18.1719C35.6045 17.944 35.514 17.7254 35.3528 17.5642C35.1916 17.403 34.9731 17.3125 34.7451 17.3125C34.5172 17.3125 34.2986 17.403 34.1375 17.5642C33.9763 17.7254 33.8858 17.944 33.8858 18.1719V36.9922C25.6814 33.1994 16.9549 30.6575 7.99709 29.4512C7.50295 29.3867 7.12697 28.9678 7.12697 28.4844V20.707C7.12697 20.2236 7.50295 19.8047 7.98635 19.7402C16.9441 18.5337 25.6706 15.9919 33.875 12.1992V14.4873C33.875 14.7152 33.9656 14.9338 34.1267 15.095C34.2879 15.2561 34.5065 15.3467 34.7344 15.3467C34.9623 15.3467 35.1809 15.2561 35.3421 15.095C35.5032 14.9338 35.5938 14.7152 35.5938 14.4873V10.8242C35.5938 10.2871 36.0342 9.83594 36.5821 9.83594H39.3321C39.8692 9.83594 40.3096 10.2764 40.3096 10.8135V38.3779ZM54.9512 23.7363H45.7666C45.5387 23.7363 45.3201 23.8269 45.159 23.988C44.9978 24.1492 44.9072 24.3678 44.9072 24.5957C44.9072 24.8236 44.9978 25.0422 45.159 25.2034C45.3201 25.3645 45.5387 25.4551 45.7666 25.4551H54.9512C55.1791 25.4551 55.3977 25.3645 55.5589 25.2034C55.72 25.0422 55.8106 24.8236 55.8106 24.5957C55.8106 24.3678 55.72 24.1492 55.5589 23.988C55.3977 23.8269 55.1791 23.7363 54.9512 23.7363ZM52.9854 15.0674C52.8956 14.858 52.7263 14.6929 52.5148 14.6083C52.3033 14.5237 52.0669 14.5266 51.8574 14.6162L50.9336 15.0137C50.8267 15.0558 50.7292 15.1191 50.6472 15.1996C50.5651 15.2801 50.5 15.3762 50.4557 15.4823C50.4114 15.5884 50.3889 15.7024 50.3895 15.8173C50.39 15.9323 50.4137 16.046 50.459 16.1517C50.5042 16.2573 50.5703 16.3529 50.6531 16.4326C50.736 16.5123 50.834 16.5745 50.9414 16.6156C51.0488 16.6568 51.1633 16.6759 51.2782 16.672C51.3931 16.6681 51.5061 16.6411 51.6104 16.5928L52.5342 16.2061C52.6392 16.1616 52.7343 16.0968 52.8139 16.0152C52.8936 15.9337 52.9562 15.8372 52.9982 15.7312C53.0402 15.6252 53.0607 15.512 53.0585 15.398C53.0563 15.284 53.0314 15.1716 52.9854 15.0674ZM49.3115 16.6465C49.2217 16.4371 49.0525 16.272 48.841 16.1874C48.6295 16.1028 48.393 16.1057 48.1836 16.1953L45.4229 17.377C45.3159 17.4191 45.2185 17.4823 45.1364 17.5628C45.0543 17.6433 44.9892 17.7395 44.945 17.8456C44.9007 17.9517 44.8782 18.0656 44.8787 18.1806C44.8793 18.2956 44.9029 18.4093 44.9482 18.515C44.9935 18.6206 45.0595 18.7161 45.1424 18.7958C45.2253 18.8755 45.3233 18.9378 45.4307 18.9789C45.538 19.0201 45.6526 19.0392 45.7675 19.0353C45.8824 19.0314 45.9953 19.0044 46.0996 18.9561L48.8604 17.7744C49.0697 17.6846 49.2348 17.5153 49.3194 17.3038C49.404 17.0923 49.4012 16.8559 49.3115 16.6465ZM52.5342 32.9961L51.6104 32.5986C51.5061 32.5503 51.3931 32.5233 51.2782 32.5194C51.1633 32.5155 51.0488 32.5346 50.9414 32.5758C50.834 32.6169 50.736 32.6791 50.6531 32.7588C50.5703 32.8385 50.5042 32.9341 50.459 33.0397C50.4137 33.1454 50.39 33.2591 50.3895 33.3741C50.3889 33.4891 50.4114 33.603 50.4557 33.7091C50.5 33.8152 50.5651 33.9114 50.6472 33.9919C50.7292 34.0724 50.8267 34.1356 50.9336 34.1777L51.8574 34.5752C52.0669 34.6648 52.3033 34.6677 52.5148 34.5831C52.7263 34.4985 52.8956 34.3334 52.9854 34.124C53.0314 34.0198 53.0563 33.9074 53.0585 33.7934C53.0607 33.6794 53.0402 33.5662 52.9982 33.4602C52.9562 33.3542 52.8936 33.2577 52.8139 33.1762C52.7343 33.0946 52.6392 33.0298 52.5342 32.9854V32.9961ZM48.8604 31.417L46.0996 30.2354C45.8917 30.1533 45.6599 30.1556 45.4536 30.2417C45.2473 30.3277 45.0826 30.4908 44.9945 30.6963C44.9065 30.9018 44.9019 31.1335 44.9819 31.3423C45.0619 31.551 45.2201 31.7204 45.4229 31.8145L48.1836 32.9961C48.393 33.0857 48.6295 33.0886 48.841 33.004C49.0525 32.9194 49.2217 32.7543 49.3115 32.5449C49.4012 32.3355 49.404 32.0991 49.3194 31.8876C49.2348 31.6761 49.0697 31.5068 48.8604 31.417Z" fill="black"/>
</g>
<defs>
<clipPath id="clip0_141_2465">
<rect width="55" height="55" fill="white" transform="translate(0.810547 0.769531)"/>
</clipPath>
</defs>
</svg>
