<svg width="13" height="13" viewBox="0 0 13 13" fill="none" xmlns="http://www.w3.org/2000/svg">
<path d="M12.5 5.70156H11.7409C11.3931 3.35969 9.54188 1.50846 7.2 1.16066V0.401563C7.2 0.235888 7.06568 0.101562 6.9 0.101562H5.9C5.73433 0.101562 5.6 0.235888 5.6 0.401563V1.16066C3.25812 1.50846 1.4069 3.35969 1.0591 5.70156H0.3C0.134325 5.70156 0 5.83589 0 6.00156V7.00156C0 7.16724 0.134325 7.30156 0.3 7.30156H1.0591C1.4069 9.64344 3.25812 11.4947 5.6 11.8425V12.6016C5.6 12.7672 5.73433 12.9016 5.9 12.9016H6.9C7.06568 12.9016 7.2 12.7672 7.2 12.6016V11.8425C9.54188 11.4947 11.3931 9.64344 11.7409 7.30156H12.5C12.6657 7.30156 12.8 7.16724 12.8 7.00156V6.00156C12.8 5.83589 12.6657 5.70156 12.5 5.70156ZM7.2 10.2174V9.20156C7.2 9.03589 7.06568 8.90156 6.9 8.90156H5.9C5.73433 8.90156 5.6 9.03589 5.6 9.20156V10.2174C4.14565 9.90736 2.99457 8.75764 2.68415 7.30156H3.7C3.86568 7.30156 4 7.16724 4 7.00156V6.00156C4 5.83589 3.86568 5.70156 3.7 5.70156H2.68415C2.9942 4.24721 4.14393 3.09614 5.6 2.78571V3.80156C5.6 3.96724 5.73433 4.10156 5.9 4.10156H6.9C7.06568 4.10156 7.2 3.96724 7.2 3.80156V2.78571C8.65435 3.09576 9.80543 4.24549 10.1159 5.70156H9.1C8.93433 5.70156 8.8 5.83589 8.8 6.00156V7.00156C8.8 7.16724 8.93433 7.30156 9.1 7.30156H10.1159C9.8058 8.75591 8.65608 9.90699 7.2 10.2174ZM7.2 6.50156C7.2 6.94339 6.84183 7.30156 6.4 7.30156C5.95818 7.30156 5.6 6.94339 5.6 6.50156C5.6 6.05974 5.95818 5.70156 6.4 5.70156C6.84183 5.70156 7.2 6.05974 7.2 6.50156Z" fill="#6C757D"/>
</svg>
