<svg fill="#ffc071" height="35px" width="35px" version="1.1" id="Capa_1" xmlns="http://www.w3.org/2000/svg" xmlns:xlink="http://www.w3.org/1999/xlink" viewBox="0 0 486.166 486.166" xml:space="preserve"><g id="SVGRepo_bgCarrier" stroke-width="0"></g><g id="SVGRepo_tracerCarrier" stroke-linecap="round" stroke-linejoin="round" stroke="#CCCCCC" stroke-width="5.833992"></g><g id="SVGRepo_iconCarrier"> <g> <g id="Icons_31_"> <g> <path d="M382.113,291.699H103.911c-8.952,0-16.201-7.256-16.201-16.204c0-8.951,7.249-16.208,16.201-16.208h170.764 c-17.693-11.012-33.127-25.225-45.58-41.856h-7.85L106.353,77.023c-11.506-14.066-32.252-16.14-46.322-4.628 c-6.76,5.531-11.047,13.514-11.916,22.205c-0.857,8.687,1.758,17.368,7.277,24.125l80.789,98.705H22.937 c-5.414,0-10.496,2.556-13.722,6.898c-3.231,4.345-4.214,9.954-2.643,15.13l70.709,234.545 c2.183,7.226,8.831,12.163,16.375,12.163H392.35c7.551,0,14.201-4.938,16.381-12.163l70.71-234.544 c0.382-1.251,0.601-2.533,0.679-3.807c-22.311,22.313-50.91,38.283-82.859,45.127 C395.045,287.094,389.187,291.699,382.113,291.699z M317.29,453.754H168.735c-8.959,0-16.207-7.257-16.207-16.205 c0-8.95,7.248-16.205,16.207-16.205H317.29c8.959,0,16.207,7.254,16.207,16.205C333.497,446.497,326.249,453.754,317.29,453.754z M349.704,372.728H136.327c-8.961,0-16.207-7.257-16.207-16.207c0-8.948,7.246-16.205,16.207-16.205h213.377 c8.953,0,16.201,7.257,16.201,16.205C365.905,365.471,358.657,372.728,349.704,372.728z"></path> <path d="M362.378,235.9c65.154,0,117.95-52.805,117.95-117.942C480.328,52.82,427.532,0,362.378,0 c-65.139,0-117.945,52.819-117.945,117.958C244.433,183.095,297.239,235.9,362.378,235.9z M318.591,93.649h87.579 c13.419,0,24.308,10.88,24.308,24.309c0,13.427-10.889,24.308-24.308,24.308h-87.579c-13.419,0-24.309-10.88-24.309-24.308 C294.282,104.529,305.172,93.649,318.591,93.649z"></path> </g> </g> </g> </g></svg>