<svg width="60" height="55" viewBox="0 0 60 55" fill="none" xmlns="http://www.w3.org/2000/svg">
<path d="M30 27.5C30 28.1838 29.7037 28.8395 29.1762 29.323C28.6488 29.8065 27.9334 30.0781 27.1875 30.0781H11.25C10.5041 30.0781 9.78871 29.8065 9.26126 29.323C8.73382 28.8395 8.4375 28.1838 8.4375 27.5C8.4375 26.8162 8.73382 26.1605 9.26126 25.677C9.78871 25.1935 10.5041 24.9219 11.25 24.9219H27.1875C27.9334 24.9219 28.6488 25.1935 29.1762 25.677C29.7037 26.1605 30 26.8162 30 27.5ZM11.25 16.3281H42.1875C42.9334 16.3281 43.6488 16.0565 44.1762 15.573C44.7037 15.0895 45 14.4338 45 13.75C45 13.0662 44.7037 12.4105 44.1762 11.927C43.6488 11.4435 42.9334 11.1719 42.1875 11.1719H11.25C10.5041 11.1719 9.78871 11.4435 9.26126 11.927C8.73382 12.4105 8.4375 13.0662 8.4375 13.75C8.4375 14.4338 8.73382 15.0895 9.26126 15.573C9.78871 16.0565 10.5041 16.3281 11.25 16.3281ZM23.4375 38.6719H11.25C10.5041 38.6719 9.78871 38.9435 9.26126 39.427C8.73382 39.9105 8.4375 40.5662 8.4375 41.25C8.4375 41.9338 8.73382 42.5895 9.26126 43.073C9.78871 43.5565 10.5041 43.8281 11.25 43.8281H23.4375C24.1834 43.8281 24.8988 43.5565 25.4262 43.073C25.9537 42.5895 26.25 41.9338 26.25 41.25C26.25 40.5662 25.9537 39.9105 25.4262 39.427C24.8988 38.9435 24.1834 38.6719 23.4375 38.6719ZM54.4898 34.2697C54.2286 34.0294 53.9181 33.8387 53.5762 33.7085C53.2343 33.5784 52.8678 33.5114 52.4977 33.5114C52.1275 33.5114 51.761 33.5784 51.4191 33.7085C51.0772 33.8387 50.7668 34.0294 50.5055 34.2697L45.9375 38.457V24.0625C45.9375 23.3787 45.6412 22.723 45.1137 22.2395C44.5863 21.756 43.8709 21.4844 43.125 21.4844C42.3791 21.4844 41.6637 21.756 41.1363 22.2395C40.6088 22.723 40.3125 23.3787 40.3125 24.0625V38.457L35.7398 34.2633C35.2115 33.7789 34.4949 33.5069 33.7477 33.5069C33.0004 33.5069 32.2838 33.7789 31.7555 34.2633C31.2271 34.7476 30.9303 35.4045 30.9303 36.0895C30.9303 36.7744 31.2271 37.4313 31.7555 37.9156L41.1305 46.5094C41.3918 46.7497 41.7022 46.9404 42.0441 47.0705C42.386 47.2007 42.7525 47.2677 43.1227 47.2677C43.4928 47.2677 43.8593 47.2007 44.2012 47.0705C44.5431 46.9404 44.8536 46.7497 45.1148 46.5094L54.4898 37.9156C55.0173 37.4321 55.3135 36.7764 55.3135 36.0927C55.3135 35.4089 55.0173 34.7532 54.4898 34.2697Z" fill="#F76C6C"/>
</svg>
