<svg width="115" height="115" viewBox="0 0 115 115" fill="none" xmlns="http://www.w3.org/2000/svg">
<path d="M57.4997 9.58203C31.1455 9.58203 9.58301 31.1445 9.58301 57.4987C9.58301 83.8529 31.1455 105.415 57.4997 105.415C83.8538 105.415 105.416 83.8529 105.416 57.4987C105.416 31.1445 83.8538 9.58203 57.4997 9.58203ZM57.4997 95.832C36.3684 95.832 19.1663 78.63 19.1663 57.4987C19.1663 36.3675 36.3684 19.1654 57.4997 19.1654C78.6309 19.1654 95.833 36.3675 95.833 57.4987C95.833 78.63 78.6309 95.832 57.4997 95.832ZM81.6147 38.4559C80.4444 37.2772 78.5391 37.2739 77.3646 38.4484L50.0336 65.7794C48.8636 66.9494 46.9673 66.9512 45.795 65.7835L37.6272 57.6472C36.455 56.4795 34.5587 56.4814 33.3887 57.6513L30.871 60.169C29.6994 61.3406 29.6994 63.2401 30.871 64.4117L45.795 79.3357C46.9666 80.5073 48.8661 80.5073 50.0377 79.3357L84.1358 45.2375C85.3045 44.0689 85.3078 42.1752 84.1433 41.0024L81.6147 38.4559Z" fill="#4ECBA9"/>
</svg>
