<svg width="60" height="60" viewBox="0 0 60 60" fill="none" xmlns="http://www.w3.org/2000/svg">
<path d="M34.6536 30.8127C37.7446 29.2593 39.8785 26.0899 39.8785 22.4026C39.8785 17.1934 35.6578 12.957 30.4329 12.957C25.2237 12.957 20.9873 17.1777 20.9873 22.4026C20.9873 26.0899 23.1212 29.2593 26.2122 30.8127C21.1442 32.0522 16.9549 35.5041 14.6641 40.0543C18.5867 44.2907 24.1881 46.9581 30.4172 46.9581C36.6463 46.9581 42.2477 44.2907 46.1703 40.0543C43.9109 35.5041 39.7216 32.0522 34.6536 30.8127Z" fill="#233EC9"/>
<path d="M30 60C13.4467 60 0 46.5533 0 30C0 13.4467 13.4467 0 30 0C46.5533 0 60 13.4623 60 30C60 46.5533 46.5533 60 30 60ZM30 3.51464C15.4079 3.51464 3.51464 15.4079 3.51464 30C3.51464 44.592 15.4079 56.4854 30 56.4854C44.5921 56.4854 56.4854 44.592 56.4854 30C56.4854 15.4079 44.5921 3.51464 30 3.51464Z" fill="#233EC9"/>
</svg>
