<?xml version="1.0" encoding="iso-8859-1"?>
<!-- Uploaded to: SVG Repo, www.svgrepo.com, Generator: SVG Repo Mixer Tools -->
<!DOCTYPE svg PUBLIC "-//W3C//DTD SVG 1.1//EN" "http://www.w3.org/Graphics/SVG/1.1/DTD/svg11.dtd">
<svg fill="#000000" version="1.1" id="Capa_1" xmlns="http://www.w3.org/2000/svg" xmlns:xlink="http://www.w3.org/1999/xlink" 
	 width="800px" height="800px" viewBox="0 0 299.977 299.977"
	 xml:space="preserve">
<g>
	<path d="M64.747,244.116l15.632,27.056c0.63,1.088,1.787,1.752,3.036,1.752h31.237c1.252,0,2.413-0.664,3.036-1.752l15.625-27.056
		c0.626-1.085,0.626-2.416,0-3.504l-15.625-27.056c-0.623-1.085-1.78-1.752-3.036-1.752H83.415c-1.249,0-2.406,0.667-3.036,1.752
		l-15.632,27.056C64.12,241.7,64.12,243.035,64.747,244.116z M85.437,218.82h27.192l13.6,23.551l-13.6,23.548H85.437l-13.606-23.548
		L85.437,218.82z"/>
	<path d="M119.925,242.364c0-11.516-9.373-20.889-20.896-20.889s-20.896,9.373-20.896,20.889c0,11.525,9.374,20.906,20.896,20.906
		S119.925,253.89,119.925,242.364z M85.146,242.364c0-7.652,6.232-13.88,13.887-13.88c7.659,0,13.887,6.228,13.887,13.88
		c0,7.666-6.229,13.897-13.887,13.897C91.378,256.262,85.146,250.03,85.146,242.364z"/>
	<path d="M119.744,167.96c-0.613-1.828-2.601-2.816-4.435-2.208l-34.787,11.68c-1.831,0.616-2.823,2.604-2.204,4.442
		c0.493,1.465,1.858,2.389,3.323,2.389c0.37,0,0.746-0.062,1.116-0.185l34.783-11.677
		C119.375,171.782,120.36,169.794,119.744,167.96z"/>
	<path d="M119.744,153.942c-0.613-1.834-2.601-2.819-4.435-2.207l-34.787,11.68c-1.831,0.616-2.823,2.604-2.204,4.442
		c0.493,1.464,1.858,2.389,3.323,2.389c0.37,0,0.746-0.062,1.116-0.186l34.783-11.676
		C119.375,157.765,120.36,155.776,119.744,153.942z"/>
	<path d="M119.744,139.925c-0.613-1.833-2.601-2.813-4.435-2.208l-34.787,11.68c-1.831,0.616-2.823,2.604-2.204,4.442
		c0.493,1.465,1.858,2.389,3.323,2.389c0.37,0,0.746-0.062,1.116-0.185l34.783-11.678
		C119.375,143.748,120.36,141.758,119.744,139.925z"/>
	<path d="M119.744,122.404c-0.613-1.833-2.601-2.82-4.435-2.208l-34.787,11.68c-1.831,0.616-2.823,2.604-2.204,4.44
		c0.493,1.465,1.858,2.391,3.323,2.391c0.37,0,0.746-0.06,1.116-0.183l34.783-11.68C119.375,126.227,120.36,124.236,119.744,122.404
		z"/>
	<path d="M119.744,104.882c-0.613-1.833-2.601-2.816-4.435-2.208l-34.787,11.68c-1.831,0.616-2.823,2.604-2.204,4.44
		c0.493,1.465,1.858,2.391,3.323,2.391c0.37,0,0.746-0.06,1.116-0.183l34.783-11.68C119.375,108.705,120.36,106.715,119.744,104.882
		z"/>
	<path d="M109.755,177.385l-24.53,7.008c-1.506,0.432-2.542,1.807-2.542,3.371v12.265c0,1.938,1.571,3.505,3.504,3.505h24.53
		c1.934,0,3.504-1.567,3.504-3.505v-19.273c0-1.099-0.513-2.136-1.393-2.803C111.952,177.295,110.812,177.09,109.755,177.385z
		 M107.212,196.524H89.69v-6.119l17.521-5.007V196.524z"/>
	<path d="M86.187,109.502c0.465,0,0.941-0.092,1.382-0.284l24.53-10.509c1.29-0.551,2.122-1.819,2.122-3.221V69.783
		c0-1.937-1.571-3.504-3.504-3.504h-24.53c-1.934,0-3.504,1.567-3.504,3.504v36.215c0,1.177,0.592,2.274,1.574,2.926
		C84.838,109.309,85.512,109.502,86.187,109.502z M89.69,73.287h17.521v19.892l-17.521,7.506V73.287z"/>
	<path d="M68.665,33.575v28.035c0,1.937,1.571,3.504,3.504,3.504h51.394c1.933,0,3.504-1.567,3.504-3.504V33.575
		c0-1.938-1.571-3.504-3.504-3.504H72.169C70.232,30.07,68.665,31.64,68.665,33.575z M75.673,37.079h44.386v21.026H75.673V37.079z"
		/>
	<path d="M219.616,137.889c-0.612-1.833-2.598-2.816-4.435-2.208l-34.786,11.68c-1.831,0.616-2.824,2.604-2.204,4.438
		c0.492,1.465,1.858,2.393,3.322,2.393c0.37,0,0.746-0.059,1.116-0.182l34.783-11.682
		C219.247,141.713,220.232,139.722,219.616,137.889z"/>
	<path d="M219.616,123.872c-0.612-1.833-2.598-2.82-4.435-2.208l-34.786,11.68c-1.831,0.616-2.824,2.604-2.204,4.44
		c0.492,1.465,1.858,2.39,3.322,2.39c0.37,0,0.746-0.06,1.116-0.183l34.783-11.68C219.247,127.696,220.232,125.705,219.616,123.872z
		"/>
	<path d="M219.616,109.854c-0.612-1.832-2.598-2.812-4.435-2.207l-34.786,11.68c-1.831,0.616-2.824,2.604-2.204,4.44
		c0.492,1.465,1.858,2.391,3.322,2.391c0.37,0,0.746-0.06,1.116-0.184l34.783-11.68
		C219.247,113.679,220.232,111.688,219.616,109.854z"/>
	<path d="M219.616,92.333c-0.612-1.832-2.598-2.819-4.435-2.207l-34.786,11.68c-1.831,0.616-2.824,2.604-2.204,4.44
		c0.492,1.465,1.858,2.391,3.322,2.391c0.37,0,0.746-0.06,1.116-0.184l34.783-11.68C219.247,96.158,220.232,94.166,219.616,92.333z"
		/>
	<path d="M219.616,74.812c-0.612-1.833-2.598-2.817-4.435-2.208l-34.786,11.68c-1.831,0.616-2.824,2.604-2.204,4.44
		c0.492,1.465,1.858,2.391,3.322,2.391c0.37,0,0.746-0.06,1.116-0.184l34.783-11.68C219.247,78.636,220.232,76.645,219.616,74.812z"
		/>
	<path d="M209.627,147.312l-24.53,7.006c-1.506,0.432-2.542,1.811-2.542,3.375v12.265c0,1.938,1.57,3.505,3.504,3.505h24.53
		c1.934,0,3.504-1.567,3.504-3.505v-19.273c0-1.099-0.513-2.136-1.393-2.801C211.824,147.228,210.681,147.018,209.627,147.312z
		 M207.085,166.454h-17.521v-6.119l17.521-5.003V166.454z"/>
	<path d="M186.059,79.432c0.466,0,0.941-0.092,1.383-0.284l24.53-10.509c1.29-0.551,2.121-1.819,2.121-3.22V39.714
		c0-1.938-1.57-3.504-3.504-3.504h-24.53c-1.934,0-3.504,1.565-3.504,3.504v36.214c0,1.177,0.592,2.274,1.574,2.926
		C184.71,79.238,185.385,79.432,186.059,79.432z M189.563,43.219h17.521v19.889l-17.521,7.506V43.219z"/>
	<path d="M226.939,31.539V3.504c0-1.939-1.57-3.504-3.504-3.504h-51.394c-1.934,0-3.505,1.565-3.505,3.504v28.034
		c0,1.937,1.571,3.504,3.505,3.504h51.394C225.369,35.043,226.939,33.476,226.939,31.539z M219.932,28.034h-44.386V7.009h44.386
		V28.034z"/>
	<path d="M235.7,211.599c0-20.937-17.028-37.965-37.965-37.965c-20.93,0-37.959,17.028-37.959,37.965
		c0,13.114,6.693,24.996,17.617,31.937l-13.938,24.133c-0.626,1.088-0.626,2.416,0,3.504l15.626,27.053
		c0.626,1.084,1.783,1.752,3.035,1.752h31.244c1.253,0,2.413-0.668,3.036-1.752l15.625-27.053c0.627-1.088,0.627-2.416,0-3.504
		l-13.938-24.133C229.007,236.591,235.7,224.713,235.7,211.599z M211.335,292.968h-27.199l-13.6-23.548l13.059-22.61
		c0.219,0.089,0.441,0.147,0.664,0.229c0.482,0.188,0.976,0.349,1.465,0.514c0.787,0.267,1.577,0.506,2.378,0.718
		c0.562,0.151,1.119,0.288,1.684,0.411c0.764,0.164,1.53,0.291,2.297,0.407c0.188,0.027,0.366,0.071,0.551,0.099
		c-9.059,2.279-15.793,10.473-15.793,20.229c0,11.526,9.373,20.903,20.896,20.903s20.896-9.377,20.896-20.903
		c0-9.756-6.735-17.949-15.793-20.229c0.174-0.027,0.349-0.071,0.52-0.092c0.787-0.12,1.567-0.25,2.352-0.418
		c0.551-0.119,1.095-0.256,1.643-0.4c0.821-0.219,1.625-0.465,2.433-0.735c0.473-0.161,0.945-0.314,1.414-0.493
		c0.226-0.089,0.458-0.146,0.681-0.239l13.062,22.61L211.335,292.968z M211.619,269.42c0,7.666-6.229,13.894-13.888,13.894
		c-7.655,0-13.887-6.228-13.887-13.894c0-7.652,6.231-13.881,13.887-13.881C205.391,255.539,211.619,261.768,211.619,269.42z
		 M211.626,239.232c-8.744,4.412-19.021,4.412-27.778,0c-10.522-5.301-17.065-15.889-17.065-27.634
		c0-17.069,13.883-30.956,30.949-30.956c17.07,0,30.957,13.887,30.957,30.956C228.692,223.344,222.148,233.929,211.626,239.232z"/>
	<path d="M197.735,194.714c-9.312,0-16.882,7.573-16.882,16.885c0,9.312,7.573,16.886,16.882,16.886
		c9.314,0,16.892-7.573,16.892-16.886C214.627,202.287,207.047,194.714,197.735,194.714z M197.735,221.476
		c-5.445,0-9.873-4.432-9.873-9.877c0-5.448,4.428-9.876,9.873-9.876c5.451,0,9.883,4.428,9.883,9.876
		C207.618,217.044,203.187,221.476,197.735,221.476z"/>
</g>
</svg>