<?xml version="1.0" encoding="iso-8859-1"?>
<!-- Uploaded to: SVG Repo, www.svgrepo.com, Generator: SVG Repo Mixer Tools -->
<svg fill="#000000" height="800px" width="800px" version="1.1" id="Layer_1" xmlns="http://www.w3.org/2000/svg" xmlns:xlink="http://www.w3.org/1999/xlink" 
	 viewBox="0 0 512 512" xml:space="preserve">
<g>
	<g>
		<path d="M490.743,129.66L369.378,8.294c-11.057-11.057-29.053-11.059-40.11,0c-11.059,11.057-11.059,29.051,0,40.11l1.231,1.231
			c0.867,13.642,1.862,69.268-35.24,106.369l-62.135,62.136l-11.427-11.427c-1.756-1.757-4.138-2.743-6.622-2.743
			s-4.866,0.987-6.622,2.743l-7.502,7.502L184.9,198.165l7.502-7.502c3.658-3.657,3.658-9.588,0-13.244
			c-3.657-3.659-9.588-3.657-13.244,0l-28.25,28.248c-3.657,3.657-3.657,9.588,0,13.244c1.828,1.829,4.226,2.743,6.622,2.743
			s4.794-0.914,6.622-2.743l7.502-7.502l16.051,16.051l-7.502,7.502c-3.658,3.657-3.658,9.588,0,13.244l11.427,11.426
			l-11.473,11.473l-11.426-11.426c-3.656-3.659-9.586-3.658-13.244,0l-7.502,7.502l-16.051-16.051l7.502-7.502
			c3.657-3.657,3.657-9.588,0-13.244c-3.658-3.657-9.588-3.657-13.244,0l-28.251,28.25c-3.657,3.658-3.657,9.588,0,13.244
			c1.828,1.828,4.226,2.743,6.622,2.743s4.794-0.914,6.622-2.743l7.502-7.502l16.051,16.051l-7.502,7.502
			c-1.757,1.756-2.743,4.138-2.743,6.622s0.987,4.866,2.743,6.622l11.427,11.427l-11.473,11.473l-11.427-11.426
			c-3.658-3.657-9.588-3.657-13.244,0l-8.068,8.068l-16.051-16.051l8.068-8.068c3.658-3.658,3.658-9.588,0-13.244
			c-3.657-3.658-9.588-3.658-13.244,0L44.977,311.6c-3.658,3.658-3.658,9.588,0,13.244c1.828,1.828,4.226,2.743,6.622,2.743
			c2.396,0,4.794-0.914,6.622-2.743l6.937-6.937l16.051,16.051l-6.937,6.937c-3.657,3.657-3.657,9.588,0,13.244l11.426,11.426
			L16.995,434.27c-3.658,3.657-3.658,9.588,0,13.244l5.091,5.091l-6.393,6.395c-3.657,3.657-3.657,9.588,0,13.244
			c1.828,1.829,4.226,2.743,6.622,2.743s4.794-0.914,6.622-2.743l6.393-6.395l2.988,2.989c1.823,1.823,4.221,2.743,6.623,2.743
			c2.228,0,4.459-0.79,6.241-2.384l34.544-30.882c-1.542,19.243,5.014,39.02,19.701,53.709
			c12.869,12.869,29.989,19.963,48.219,19.976c18.218-0.012,35.337-7.106,48.205-19.976l5.25-5.248
			c5.407,4.482,12.053,6.733,18.703,6.733c7.514,0,15.027-2.861,20.747-8.58c10.781-10.783,11.391-27.935,1.846-39.449
			l11.664-11.663c5.251,4.363,11.797,6.739,18.709,6.739c7.837,0,15.206-3.052,20.747-8.594s8.594-12.909,8.594-20.746
			c0-6.913-2.378-13.459-6.741-18.71l11.657-11.657c5.251,4.363,11.797,6.739,18.71,6.739c7.837,0,15.204-3.052,20.746-8.592
			c5.542-5.542,8.594-12.909,8.594-20.747c0-6.913-2.378-13.457-6.741-18.71l35.839-35.839c26.585-26.585,26.585-69.841,0-96.426
			c-8.415-8.415-18.653-14.341-29.824-17.453c35.116-22.733,77.395-21.986,89.056-21.274l1.222,1.222
			c5.357,5.357,12.48,8.308,20.056,8.308s14.699-2.951,20.056-8.306c5.357-5.357,8.306-12.48,8.306-20.056
			S496.1,135.016,490.743,129.66z M45.301,449.331l-8.44-8.44l62.081-62.081l11.637,11.637l-4.966,4.966L45.301,449.331z
			 M188.61,478.78c-9.335,9.333-21.756,14.479-34.962,14.489c-13.219-0.009-25.64-5.155-34.975-14.49
			c-19.281-19.281-19.281-50.654,0-69.937l5.151-5.151l13.959,13.959l-5.15,5.151c-5.604,5.604-8.691,13.065-8.691,21.01
			s3.087,15.404,8.691,21.01c5.792,5.793,13.4,8.689,21.008,8.689c7.608,0,15.217-2.896,21.01-8.689l5.15-5.151l13.959,13.959
			L188.61,478.78z M142.674,443.811c0-2.939,1.136-5.698,3.204-7.765l5.151-5.151l15.529,15.529l-5.15,5.151
			c-4.281,4.282-11.248,4.282-15.529,0C143.812,449.509,142.674,446.75,142.674,443.811z M233.309,471.684
			c-4.137,4.137-10.869,4.137-15.005,0L94.138,347.517l15.005-15.005l124.166,124.166
			C237.445,460.816,237.445,467.546,233.309,471.684z M140.436,337.317l11.473-11.473l11.637,11.637l-11.473,11.473L140.436,337.317
			z M165.317,362.199l11.473-11.473l13.959,13.959l-11.473,11.473L165.317,362.199z M192.521,389.402l11.473-11.473l15.529,15.529
			l-11.473,11.473L192.521,389.402z M235.253,432.135l-13.959-13.959l11.473-11.473l13.959,13.959L235.253,432.135z
			 M286.275,418.717c-2.004,2.004-4.668,3.107-7.502,3.107c-2.833,0-5.498-1.104-7.502-3.107L147.104,294.551l15.005-15.005
			l124.166,124.167c2.004,2.003,3.107,4.668,3.107,7.501S288.279,416.712,286.275,418.717z M193.403,284.35l11.473-11.473
			l11.637,11.637l-11.473,11.473L193.403,284.35z M218.283,309.232l11.473-11.473l13.959,13.959l-11.473,11.473L218.283,309.232z
			 M245.487,336.435l11.473-11.473l15.529,15.529l-11.473,11.473L245.487,336.435z M288.22,379.169l-13.959-13.959l11.473-11.473
			l13.959,13.959L288.22,379.169z M339.242,365.75c-2.004,2.004-4.668,3.108-7.502,3.108c-2.835,0-5.498-1.103-7.502-3.107
			L200.071,241.585l15.005-15.005l124.166,124.166c2.003,2.004,3.107,4.669,3.107,7.502
			C342.348,361.082,341.246,363.746,339.242,365.75z M298.455,283.469l35.748-35.747c2.067-2.067,4.824-3.205,7.763-3.205
			c2.939,0,5.698,1.139,7.764,3.205c2.067,2.067,3.204,4.824,3.204,7.765c0,2.941-1.138,5.698-3.204,7.765L313.983,299
			L298.455,283.469z M376.935,220.518c9.339,9.34,14.484,21.758,14.485,34.965c0,13.209-5.143,25.629-14.486,34.972l-35.747,35.747
			l-13.959-13.959l35.748-35.748c11.584-11.584,11.584-30.434,0-42.017c-5.604-5.606-13.065-8.691-21.01-8.691
			s-15.404,3.087-21.008,8.691l-35.747,35.747l-13.959-13.959l35.747-35.747c8.188-8.187,19.018-13.26,30.494-14.285
			c1.543-0.137,3.007-0.205,4.468-0.205C355.179,206.037,367.6,211.183,376.935,220.518z M332.432,187.974
			c-14.575,2.052-28.202,8.822-38.679,19.299l-35.747,35.747l-11.637-11.637l62.135-62.136
			c31.98-31.98,39.512-74.502,40.812-100.796l81.269,81.269C405.008,150.986,364.079,158.152,332.432,187.974z M477.499,156.524
			c-1.819,1.821-4.238,2.822-6.81,2.822s-4.991-1.002-6.81-2.821L342.512,35.16c-3.755-3.755-3.755-9.865,0-13.621
			c1.878-1.877,4.344-2.816,6.81-2.816c2.466,0,4.932,0.939,6.811,2.816l121.365,121.367c1.819,1.819,2.821,4.237,2.821,6.809
			C480.32,152.287,479.319,154.706,477.499,156.524z"/>
	</g>
</g>
</svg>